<?xml version="1.0" encoding="UTF-8" standalone="no"?>
<!-- Created with Inkscape (http://www.inkscape.org/) -->

<svg
   width="300"
   height="300"
   viewBox="0 0 300 300"
   version="1.1"
   id="svg1"
   inkscape:version="1.4.2 (f4327f4, 2025-05-13)"
   sodipodi:docname="logo_amarelo_salmao.svg"
   xmlns:inkscape="http://www.inkscape.org/namespaces/inkscape"
   xmlns:sodipodi="http://sodipodi.sourceforge.net/DTD/sodipodi-0.dtd"
   xmlns:xlink="http://www.w3.org/1999/xlink"
   xmlns="http://www.w3.org/2000/svg"
   xmlns:svg="http://www.w3.org/2000/svg">
  <sodipodi:namedview
     id="namedview1"
     pagecolor="#ffffff"
     bordercolor="#000000"
     borderopacity="0.25"
     inkscape:showpageshadow="2"
     inkscape:pageopacity="0.0"
     inkscape:pagecheckerboard="0"
     inkscape:deskcolor="#d1d1d1"
     inkscape:document-units="px"
     inkscape:zoom="1.345"
     inkscape:cx="107.0632"
     inkscape:cy="169.88848"
     inkscape:window-width="1920"
     inkscape:window-height="1009"
     inkscape:window-x="1912"
     inkscape:window-y="92"
     inkscape:window-maximized="1"
     inkscape:current-layer="layer1" />
  <defs
     id="defs1">
    <linearGradient
       id="linearGradient32">
      <stop
         style="stop-color:#ea33de;stop-opacity:1;"
         offset="0"
         id="stop31" />
      <stop
         style="stop-color:#fa514f;stop-opacity:1;"
         offset="0.69578314"
         id="stop32" />
    </linearGradient>
    <linearGradient
       id="linearGradient20">
      <stop
         style="stop-color:#ffcc4b;stop-opacity:1;"
         offset="0"
         id="stop19" />
      <stop
         style="stop-color:#ff426c;stop-opacity:1;"
         offset="1"
         id="stop20" />
    </linearGradient>
    <linearGradient
       inkscape:collect="always"
       xlink:href="#linearGradient20"
       id="linearGradient26"
       gradientUnits="userSpaceOnUse"
       gradientTransform="matrix(0.67294629,0,0,0.67294633,-2.42227,-2.422351)"
       x1="384.35278"
       y1="-229.1496"
       x2="715.64752"
       y2="69.149536" />
  </defs>
  <g
     inkscape:label="Camada 1"
     inkscape:groupmode="layer"
     id="layer1">
    <path
       id="Forma 10-6-6"
       style="baseline-shift:baseline;display:inline;overflow:visible;vector-effect:none;fill:url(#linearGradient26);fill-rule:evenodd;stroke-width:0.672946;stroke-miterlimit:10;enable-background:accumulate;stop-color:#000000"
       d="M 150,0 C 67.12751,0 0,67.127541 0,150 0,232.87246 67.12751,300 150,300 232.87249,300 300,232.87246 300,150 300,67.127541 232.87249,0 150,0 Z m 0,12.113031 c 76.34665,0 137.88695,61.540318 137.88695,137.886969 0,45.67437 -22.0256,86.04949 -56.07013,111.11895 2.8009,-7.20325 5.70921,-16.7383 6.81884,-27.25696 1.19696,-11.346 0.30477,-24.05233 -5.37433,-36.14983 -5.67909,-12.09751 -16.18646,-23.33537 -33.00984,-31.61271 -3.00162,-1.47662 -6.63183,-0.24024 -8.10819,2.76144 -1.47688,3.00122 -0.24108,6.63136 2.76013,8.10821 14.77136,7.26774 22.89649,16.31025 27.39364,25.89005 4.49715,9.57978 5.32483,19.94736 4.29258,29.73187 -1.48164,14.04516 -6.71225,26.19575 -9.59074,32.07667 -4.76236,-0.97615 -15.05402,-3.27835 -28.74739,-8.89814 -17.43992,-7.15732 -35.95163,-18.81076 -42.62037,-34.81577 l -7.3e-4,-7.4e-4 v -0.003 c -6.96601,-16.68232 -1.45994,-27.64757 6.00394,-36.01183 6.80758,-7.62893 15.20289,-11.94201 16.62642,-12.6414 0.07,-0.0335 0.14037,-0.0676 0.21035,-0.10122 0.0142,-0.006 0.0274,-0.0133 0.0406,-0.0197 0.0527,-0.0255 0.10629,-0.0506 0.15903,-0.0763 0.19858,-0.0997 0.38773,-0.21054 0.57048,-0.32859 19.09407,-9.5553 32.23957,-29.26644 32.23957,-52.05346 0,-32.125881 -26.0839,-58.209856 -58.20978,-58.209856 -32.12598,0 -58.20988,26.083968 -58.20988,58.209856 0,12.81715 4.15141,24.67294 11.18242,34.29398 -2.44289,4.12526 -12.18262,22.0367 -12.0236,45.13867 0.17515,25.44863 13.21569,57.22239 58.19538,82.26769 l -2.89553,6.08017 C 68.09899,282.1709 12.11314,222.82059 12.11314,150.0004 c 0,-76.346647 61.5403,-137.886965 137.88695,-137.886965 z m 93.62632,46.145456 c -0.33539,0 -0.70537,0.178171 -0.8925,0.45871 -0.18712,0.280532 -0.23529,0.596497 -0.23529,0.948951 0,0.66429 0.13763,1.450959 0.39696,2.385553 a 0.53403,0.51806522 0 0 0 0.0101,0.01702 c 0.28581,0.900981 0.75274,2.435329 1.3998,4.597593 a 0.53403,0.51806522 0 0 0 0,0.0081 c 0.58286,1.845207 0.92738,3.703201 1.11065,5.571532 -2.21085,-0.987715 -5.03265,-1.975555 -8.71022,-2.977003 -4.07737,-1.085131 -7.88822,-1.927056 -11.43222,-2.523552 -1.84027,-0.31504 -3.55629,-0.578186 -5.14695,-0.788599 a 0.53403,0.51806522 0 0 0 -0.0101,-7.34e-4 c -1.5646,-0.176484 -3.04178,-0.264186 -4.43204,-0.264186 -1.38549,0 -2.55912,0.06889 -3.53295,0.214242 a 0.53403,0.51806522 0 0 0 -0.0254,0.0044 c -0.53347,0.103512 -0.99878,0.330124 -1.31693,0.700552 -0.31826,0.370435 -0.46005,0.856252 -0.46005,1.378757 0,2.050632 0.25781,3.623399 0.85436,4.751365 0.59645,1.127973 1.62809,1.784882 2.86258,1.784882 4.44876,0.03477 10.39591,0.642596 17.82124,1.825627 v 0 c 2.91135,0.48815 5.58944,0.941967 8.03334,1.360351 a 0.53403,0.51806522 0 0 0 7.4e-4,0 c 2.28782,0.385995 4.09958,0.623214 5.63984,0.774154 -0.19685,5.024744 -0.31014,8.47284 -0.31014,9.86288 0,1.613504 0.82717,2.851893 2.29482,3.366035 a 0.53403,0.51806522 0 0 0 0.0132,0.0051 c 0.6221,0.201163 1.18792,0.433951 1.69807,0.697918 a 0.53403,0.51806522 0 0 0 0.0122,0.0059 c 0.59939,0.290728 0.97424,0.473162 1.42738,0.473162 0.49209,0 0.97495,-0.185713 1.26967,-0.553338 0.29473,-0.367633 0.39696,-0.839233 0.39696,-1.377437 l 0.16034,-17.215347 a 0.53403,0.51806522 0 0 0 0,-0.0091 c -0.0365,-4.107565 -1.24036,-7.865699 -3.59867,-11.225842 a 0.53403,0.51806522 0 0 0 -0.0101,-0.0059 c -0.95648,-1.320436 -1.92038,-2.353011 -2.91257,-3.093977 -7e-4,-6.53e-4 0,-0.0022 0,-0.0029 -0.92981,-0.720828 -1.63873,-1.154001 -2.37768,-1.154001 z M 143.2705,73.620586 c 25.61292,0 46.09684,20.483922 46.09684,46.096824 0,16.23159 -8.27543,30.33675 -20.82054,38.54064 -0.44381,0.21991 -3.63204,1.78099 -8.38953,4.71325 -4.07879,2.30547 -7.59359,4.84387 -10.59236,7.39715 -2.51642,2.02345 -4.92393,4.21329 -6.96864,6.50471 -9.41032,10.54553 -16.85878,27.87584 -8.14501,48.74393 8.81001,21.1393 30.40418,33.64428 49.20128,41.35859 9.27361,3.80589 18.05412,6.43433 24.57175,8.12137 -16.67745,7.74706 -35.17932,12.26204 -54.71102,12.74654 2.02282,-3.83978 4.11957,-8.34939 4.81176,-11.66352 0.12647,-0.60537 -5.20739,-2.69048 -5.20739,-2.69048 -46.33618,-23.95123 -56.63037,-51.94471 -56.78514,-74.42366 -0.11583,-16.83586 5.90799,-30.53964 8.94155,-36.36407 0.0223,-0.0441 0.0477,-0.0848 0.07,-0.12881 0.9569,-1.82129 1.63114,-2.89945 1.63114,-2.89945 l -0.066,-0.0421 v -7.3e-4 c 1.79137,-3.07308 3.4724,-5.56568 2.8863,-6.27076 -7.6438,-9.19433 -12.62178,-20.63256 -12.62178,-33.64206 0,-25.612904 20.48392,-46.096826 46.09683,-46.096826 z m 77.37312,10.388613 c -2.06196,0 -3.68102,0.258809 -4.87889,0.839863 -3.26956,1.585892 -4.93538,4.66444 -4.93538,8.94152 0,5.327203 1.49513,9.598188 4.5148,12.708428 0.0892,0.0919 0.18234,0.14961 0.272,0.23789 -0.98773,0.46616 -1.85912,1.10443 -2.56551,1.96102 a 0.53403,0.51806522 0 0 0 0,0.005 c -1.47292,1.83182 -2.21734,3.98537 -2.21734,6.39037 0,2.39711 0.42363,4.4998 1.29067,6.29179 0.84939,1.75536 1.87352,3.20522 3.07951,4.33865 0.2508,0.23589 0.51257,0.40653 0.76764,0.61774 -1.67809,0.0469 -3.04046,0.25485 -3.99431,0.75312 a 0.53403,0.51806522 0 0 0 -0.0213,0.0119 c -0.98458,0.57304 -1.60749,1.33371 -1.60749,2.22388 0,0.73566 0.16267,1.40719 0.50212,1.98335 0.28651,0.52095 0.58935,1.05824 0.91085,1.6127 l 7.3e-4,7.3e-4 c 0.78296,1.39767 2.33001,2.10165 4.35303,2.10165 0.8075,0 1.63174,-0.0355 2.47362,-0.10646 0.8002,-0.0676 1.60121,-0.13623 2.40132,-0.20372 2.35131,0.34179 4.65566,1.1965 6.92533,2.58531 a 0.53403,0.51806522 0 0 0 0,7.3e-4 c 2.30446,1.38878 3.30821,2.71077 3.30821,3.90492 0,0.67793 -0.14889,1.11034 -0.36015,1.3551 -0.21125,0.24476 -0.50638,0.37853 -1.04756,0.37853 -0.75081,0 -1.48174,-0.0834 -2.19624,-0.24841 -0.75497,-0.17437 -1.96003,-0.45344 -3.61449,-0.83724 a 0.53403,0.51806522 0 0 0 -0.0101,-0.003 c -1.69767,-0.35803 -3.55171,-0.53493 -5.56226,-0.53493 -2.3576,0 -4.17585,0.34626 -5.46246,1.12638 -1.24219,0.75316 -1.9295,1.95861 -1.97545,3.42126 -0.0639,0.13539 -0.0568,0.258 -0.0568,0.3667 0,0.74176 0.3424,1.67467 0.96602,2.99146 0.62363,1.31678 1.54888,2.9841 2.77718,5.01686 a 0.53403,0.51806522 0 0 0 0.071,0.0933 c 2.40355,2.47517 4.97869,3.77349 7.67189,3.77349 0.64807,0 1.15689,-0.0525 1.57849,-0.22081 0.4217,-0.16842 0.78996,-0.57521 0.78996,-1.02914 0,-0.35645 -0.16106,-0.56678 -0.35882,-0.82935 -0.19777,-0.26256 -0.46948,-0.55496 -0.82282,-0.89769 a 0.53403,0.51806522 0 0 0 -0.0101,-0.0106 c -0.68255,-0.62738 -1.43783,-1.32527 -2.2646,-2.09244 -0.77931,-0.75641 -1.50476,-1.51141 -2.17657,-2.26594 -0.64411,-0.72358 -0.89502,-1.29356 -0.89502,-1.59825 0,-0.005 -7.4e-4,-0.008 -7.4e-4,-0.0119 0.0385,-0.0146 0.14574,-0.0461 0.3286,-0.0461 0.50872,0 1.19452,0.0955 2.03062,0.29837 0.91237,0.2476 2.37961,0.61263 4.42545,1.10011 2.08782,0.53225 4.14573,0.79912 6.16956,0.79912 2.12392,0 3.85729,-0.66933 5.04309,-2.00964 1.22677,-1.34576 1.80466,-3.28115 1.80466,-5.73056 0,-1.05953 -0.15193,-2.04076 -0.46004,-2.93757 -0.60518,-1.76118 -1.79736,-3.17491 -3.25963,-4.41095 l 1.75862,0.35618 c 0.93468,0.47174 1.80405,0.94192 2.59979,1.41161 l 0.0101,0.004 c 0.87089,0.52778 1.70851,0.98687 2.51308,1.37745 v 7.3e-4 c 0.8507,0.43033 1.70405,0.77284 2.56165,1.02651 0.91085,0.29383 1.84634,0.44195 2.79695,0.44294 1.02779,0.0373 2.20669,-0.27088 3.57757,-0.88193 0.7142,-0.31831 1.28175,-0.69554 1.68377,-1.15927 0.4,-0.46151 0.61958,-1.02112 0.6216,-1.60743 0.0376,-1.1123 -0.59503,-2.06399 -1.68894,-2.61424 a 0.53403,0.51806522 0 0 0 -7.3e-4,0 c -7.08457,-3.54163 -13.74773,-5.91522 -19.99518,-7.11326 -1.95953,-0.37677 -4.10111,-0.65329 -6.39431,-0.84644 -0.19391,-0.22438 -0.39542,-0.44861 -0.68995,-0.7058 a 0.53403,0.51806522 0 0 0 -0.0101,-0.009 c -0.7075,-0.58335 -1.49137,-1.27426 -2.34614,-2.06879 -0.80446,-0.78066 -1.55689,-1.64694 -2.25932,-2.6011 a 0.53403,0.51806522 0 0 0 -0.0101,-0.008 c -0.66054,-0.8651 -0.97028,-1.73645 -0.97261,-2.66419 0.0345,-0.97667 0.2502,-1.79542 0.63347,-2.47886 0.57332,-0.98769 1.32109,-1.43009 2.4578,-1.46154 2.63995,7.3e-4 4.92534,0.3769 6.86093,1.11456 0.95862,0.36532 1.72647,0.80736 2.31592,1.31435 0.56967,0.52426 0.77068,0.97559 0.74523,1.4208 a 0.53403,0.51806522 0 0 0 0,0.0276 c 0,0.49377 -0.18164,0.92698 -0.61248,1.37481 -0.58437,0.60735 -0.89908,1.36703 -0.89908,2.18577 0,0.763 0.54097,1.40761 1.36561,1.9426 0.86846,0.59866 1.99168,0.87799 3.32272,0.87799 1.20932,0 2.23021,-0.4005 2.8863,-1.20395 0.65608,-0.80345 0.93843,-1.93324 0.93843,-3.34502 0,-1.63305 -0.47809,-3.33572 -1.40639,-5.10098 -0.89512,-1.771 -2.16266,-3.35952 -3.79056,-4.75926 a 0.53403,0.51806522 0 0 0 0,-0.004 c -1.63284,-1.36808 -3.57716,-2.48113 -5.81995,-3.33713 a 0.53403,0.51806522 0 0 0 0,-7.3e-4 c -1.38154,-0.51379 -2.90223,-0.80902 -4.48712,-1.00284 -0.422,-0.41953 -0.81145,-0.76924 -1.28549,-1.3091 -2.16652,-2.47502 -3.2154,-4.977481 -3.21754,-7.558812 0.0345,-1.22244 0.30467,-2.289304 0.80315,-3.224104 0.46054,-0.863837 1.13722,-1.25959 2.29087,-1.29068 h 0.97129 c 0.58438,1.282867 1.122,2.577069 1.58377,3.889149 a 0.53403,0.51806522 0 0 0 0,0.0059 c 0.54695,1.48563 1.14858,2.833839 1.80993,4.045567 a 0.53403,0.51806522 0 0 0 0.0101,0.0106 c 0.71258,1.23705 1.58427,2.25396 2.61683,3.03352 v 7.4e-4 c 1.11116,0.84603 2.52068,1.26046 4.15729,1.26046 1.66835,0 3.10415,-0.59111 4.16906,-1.73625 1.08458,-1.13135 1.59827,-2.74478 1.59827,-4.747437 0,-1.962782 -0.4719,-3.829755 -1.40761,-5.57415 -0.89695,-1.738797 -2.16672,-3.279586 -3.79846,-4.610739 a 0.53403,0.51806522 0 0 0 -0.0101,-0.0044 c -1.63499,-1.297694 -3.57697,-2.33682 -5.81996,-3.121582 -2.2075,-0.784902 -4.35709,-1.182913 -6.44035,-1.182913 z m 6.76358,9.362104 c 1.46814,0.313552 2.69958,0.681749 3.46987,1.126396 0.99096,0.572024 1.3722,1.152154 1.3722,1.858486 0,0.471211 -0.10253,0.752065 -0.21815,0.891128 -0.1143,0.1375 -0.25913,0.208645 -0.59017,0.210296 -0.81612,-0.03228 -1.54756,-0.448051 -2.2725,-1.406356 h -7.3e-4 v -7.33e-4 c -0.34615,-0.470485 -0.71369,-1.030037 -1.10142,-1.679742 a 0.53403,0.51806522 0 0 0 -0.0101,-0.01188 c -0.19168,-0.304264 -0.43579,-0.65936 -0.65192,-0.987077 z M 124.09155,107.94085 c -5.18163,0 -9.42127,4.23956 -9.42127,9.42126 0,5.18168 4.23964,9.42124 9.42127,9.42124 1.91703,0 3.70476,-0.5797 5.19695,-1.57328 6.55799,8.69446 9.03486,12.43768 9.03486,12.43768 a 5.0476019,5.0476023 0 0 0 8.49987,-0.13538 c 0,0 2.33022,-3.7839 8.53405,-12.22212 1.46674,0.9439 3.20923,1.4931 5.07342,1.4931 5.18163,0 9.42117,-4.23956 9.42117,-9.42124 0,-5.1817 -4.23954,-9.42126 -9.42117,-9.42126 -3.33752,0 -6.28366,1.75871 -7.95839,4.39518 a 5.0470972,5.0470976 0 0 0 -0.30102,0.36014 c -4.55272,5.99851 -7.49653,10.14007 -9.73142,13.34326 -2.39481,-3.29898 -5.65414,-7.71832 -10.65412,-14.18708 a 5.0470972,5.0470976 0 0 0 -0.49817,-0.55466 c -1.73174,-2.04962 -4.31896,-3.35684 -7.19603,-3.35684 z m -62.18837,9.02299 c -0.67718,0 -1.21582,0.053 -1.67971,0.23528 -0.464,0.18223 -0.89777,0.64955 -0.89777,1.16188 0,0.41973 0.18631,0.64111 0.39695,0.91611 0.21065,0.275 0.49392,0.57386 0.86096,0.92398 a 0.68589916,0.65429557 0 0 0 0.0132,0.0132 c 0.70324,0.6356 1.48103,1.34272 2.33295,2.12004 0.80021,0.76385 1.54625,1.52679 2.2357,2.28828 0.65385,0.72226 0.88853,1.28099 0.88853,1.53516 0,0.36189 -0.10141,0.64272 -0.30628,0.91873 -0.11643,0.13432 -0.40254,0.28258 -1.0646,0.28258 -0.2641,0 -0.96572,-0.0907 -1.95841,-0.29046 -0.9927,-0.19982 -2.30406,-0.5032 -3.9286,-0.90822 a 0.68589916,0.65429557 0 0 0 -0.0162,-0.003 c -3.75729,-0.85173 -6.36681,-1.28795 -7.9873,-1.28941 -1.18489,-0.0367 -2.38366,0.21912 -3.56976,0.74523 -0.78601,0.32739 -1.41927,0.72648 -1.8716,1.23548 -0.45335,0.5101 -0.70456,1.14131 -0.70456,1.80066 0,1.15116 0.79259,2.16377 2.07677,3.00591 1.28407,0.84216 3.11611,1.58764 5.52676,2.28829 2.35699,0.67723 4.96976,1.01347 7.71134,1.18291 0.31672,0.35856 0.71602,0.71527 1.24593,1.0988 0.9713,0.70288 2.06551,1.9188 3.22414,3.64468 1.12717,1.73491 1.61926,2.99763 1.61926,3.31348 v 7.3e-4 7.3e-4 h 7.3e-4 v 7.4e-4 c -0.0101,0.003 -0.0162,0.0114 -0.0426,0.0329 -0.071,0.0585 -0.26338,0.16275 -0.57566,0.24842 -0.62464,0.17131 -1.69674,0.27995 -3.14654,0.27995 -2.76378,0 -6.31073,-0.35593 -10.5161,-1.02388 l 0.24574,-4.68039 c 0.0446,-0.46595 -0.26298,-0.88801 -0.61247,-1.13167 -0.34706,-0.24191 -0.77586,-0.40613 -1.31298,-0.55859 -1.03823,-0.32918 -1.92829,-0.50865 -2.70628,-0.50865 -0.27718,0 -0.53367,0.0559 -0.79918,0.18401 -0.21583,0.0869 -0.38682,0.22724 -0.45599,0.34829 -0.0811,0.1413 -0.11268,0.26291 -0.13935,0.39037 -0.0538,0.25494 -0.07,0.53884 -0.07,0.89771 0,0.46839 -0.0426,1.99456 -0.0852,3.55793 l -3.00334,-1.63242 a 0.68589916,0.65429557 0 0 0 -0.54411,-0.0565 c -0.58844,0.17541 -1.13935,0.33341 -1.65213,0.47316 a 0.68589916,0.65429557 0 0 0 -0.0213,0.006 c -1.00507,0.30681 -1.81693,0.74198 -2.39604,1.34852 -0.5791,0.60656 -0.89269,1.38554 -0.9148,2.22782 a 0.68589916,0.65429557 0 0 0 -7.3e-4,0.0159 c 0,1.21984 0.94157,2.25766 2.45779,3.1781 1.42353,0.86413 3.49158,1.67989 6.12098,2.48674 0.0193,0.38743 0.0395,0.777 0.0395,1.12508 v 1.27229 a 0.68589916,0.65429557 0 0 0 0.24179,0.49946 c 0.33539,0.2719 0.63895,0.35395 0.95821,0.55202 -0.1787,0.0127 -0.35821,0.0387 -0.5363,0.12487 -0.2141,0.0872 -0.38581,0.22646 -0.45477,0.34698 -0.0811,0.1413 -0.11257,0.2629 -0.13925,0.39036 -0.0538,0.25494 -0.07,0.53882 -0.07,0.8977 0,0.46823 -0.0406,1.99292 -0.0842,3.55533 l -3.00465,-1.63112 a 0.68589916,0.65429557 0 0 0 -0.54412,-0.0552 c -0.58844,0.17542 -1.13935,0.3321 -1.65213,0.47186 a 0.68589916,0.65429557 0 0 0 -0.0213,0.006 c -1.00507,0.30681 -1.81693,0.74328 -2.39603,1.34984 -0.57911,0.60656 -0.8927,1.38422 -0.91481,2.22651 a 0.68589916,0.65429557 0 0 0 -7.3e-4,0.017 c 0,1.21984 0.94157,2.25634 2.45779,3.17678 1.42353,0.86414 3.49158,1.67859 6.12099,2.48543 0.0193,0.38778 0.0395,0.77803 0.0395,1.1264 v 1.2736 a 0.68589916,0.65429557 0 0 0 0.24178,0.49814 c 0.78489,0.63637 1.51439,1.07539 2.24096,1.292 a 0.68589916,0.65429557 0 0 0 0.0274,0.008 c 0.26612,0.0676 0.65668,0.0599 0.96875,0.0973 -0.0913,0.0613 -0.22586,0.0379 -0.29969,0.12091 -0.30365,0.34079 -0.39827,0.77213 -0.39827,1.2184 0,0.58788 0.23671,1.15854 0.6361,1.6666 0.0994,0.12621 0.19442,0.34294 0.2931,0.4955 -0.46917,-0.0202 -0.91399,-0.0578 -1.41287,-0.0578 -2.77404,0 -5.13478,0.63299 -7.01074,1.92552 -1.94188,1.27711 -2.95993,3.23357 -2.95993,5.62409 0,2.3295 0.79848,4.2914 2.38296,5.72531 1.58793,1.43707 3.75557,2.14238 6.36539,2.14238 2.58154,0 4.8431,-0.74503 6.67159,-2.22387 a 0.68589916,0.65429557 0 0 0 0.0101,-0.005 c 1.59117,-1.31548 2.51308,-3.21856 2.97433,-5.47294 1.10659,0.46359 2.18124,0.963 3.115,1.6311 3.72667,2.67537 5.565,6.43847 5.565,11.51632 0,2.75059 -0.94259,4.77837 -2.86398,6.28389 -1.92109,1.50534 -4.6367,2.29092 -8.23832,2.29092 -1.96876,0 -3.97778,-0.27246 -6.03153,-0.82147 v -7.3e-4 c -2.05425,-0.58471 -3.9011,-1.3895 -5.54653,-2.41315 -1.6289,-1.04869 -2.94554,-2.32305 -3.96804,-3.83659 a 0.68589916,0.65429557 0 0 0 -0.0101,-0.009 c -1.04046,-1.48883 -1.55354,-3.11609 -1.55354,-4.94194 0,-1.95679 0.11004,-3.78593 0.3286,-5.48873 0.2219,-1.72917 0.38995,-2.91379 0.49675,-3.52508 0.11501,-0.65779 0.17485,-1.19712 0.17485,-1.64556 0,-0.57037 -0.0406,-1.02195 -0.19321,-1.4195 -0.0761,-0.19878 -0.1859,-0.39362 -0.37464,-0.55728 -0.18864,-0.16365 -0.47161,-0.26944 -0.72941,-0.26944 -0.88347,0 -1.72687,0.37672 -2.4644,1.01994 -0.73752,0.64322 -1.40171,1.55411 -2.03721,2.7299 -1.28601,2.379 -1.91106,5.27955 -1.91106,8.67996 0,3.37758 0.72678,6.45643 2.18702,9.20569 1.44828,2.72661 3.38184,5.06473 5.7871,6.99496 a 0.68589916,0.65429557 0 0 0 0,0.004 c 2.39969,1.88941 5.16216,3.35945 8.27118,4.40831 a 0.68589916,0.65429557 0 0 0 0.0101,0.003 c 3.11054,1.01321 6.33893,1.51939 9.67361,1.51939 4.95252,0 9.09805,-1.39972 12.30625,-4.20197 a 0.68589916,0.65429557 0 0 0 0,-0.003 c 3.63336,-3.20789 5.44532,-7.70393 5.44532,-13.31699 0,-5.59926 -1.62585,-10.23454 -4.89461,-13.79408 -3.18346,-3.50123 -7.51306,-5.79531 -12.874,-6.90953 -0.50669,-1.29543 -1.19848,-2.39751 -2.1359,-3.22014 -0.77109,-0.67875 -1.69868,-1.03848 -2.68123,-1.23813 0.0669,-0.0467 0.16035,-0.0277 0.2142,-0.0893 0.23661,-0.27085 0.29837,-0.59467 0.29837,-0.8977 v -1.60088 c 3.6433,0.7305 6.66084,1.14219 8.93233,1.14219 2.39016,0 4.265,-0.0867 5.65435,-0.27076 1.3426,-0.18298 2.54604,-0.47798 3.60922,-0.89113 a 0.68589916,0.65429557 0 0 0 0.0284,-0.0119 c 1.02697,-0.45219 1.88224,-1.01103 2.54716,-1.685 a 0.68589916,0.65429557 0 0 0 0.0284,-0.0289 c 0.68803,-0.78753 0.99107,-1.85688 0.99107,-3.12289 0,-1.29103 -0.38184,-2.7303 -1.10932,-4.33866 -0.72749,-1.64349 -1.65142,-3.1307 -2.76805,-4.45302 a 0.68589916,0.65429557 0 0 0 -7.4e-4,-7.3e-4 c -0.80596,-0.94829 -1.68031,-1.74308 -2.58922,-2.46441 1.02342,-0.18205 2.02555,-0.37955 2.87179,-0.70842 a 0.68589916,0.65429557 0 0 0 0.0284,-0.0119 c 1.02707,-0.45218 1.88225,-1.0084 2.54726,-1.68236 a 0.68589916,0.65429557 0 0 0 0.0294,-0.0316 c 0.68792,-0.78755 0.99097,-1.8569 0.99097,-3.12291 0,-1.29135 -0.38144,-2.72979 -1.10923,-4.33865 v -0.004 c -0.72718,-1.642 -1.64959,-3.12646 -2.76541,-4.44777 a 0.68589916,0.65429557 0 0 0 -7.3e-4,-7.3e-4 c -0.72668,-0.85492 -1.50953,-1.58473 -2.31988,-2.25543 1.24442,-0.22953 2.34726,-0.54421 3.23854,-0.9989 1.89978,-0.96909 2.95901,-2.58219 2.95993,-4.5529 0.0376,-3.00914 -1.2641,-5.84244 -3.79979,-8.40789 -2.56531,-2.59327 -5.28944,-3.97065 -8.11611,-3.97065 z m -27.24516,3.23462 c -1.22566,0 -2.59381,0.46077 -4.1717,1.30515 -1.65577,0.86645 -2.6865,1.95862 -2.6865,3.27404 0,0.78935 0.40173,1.52551 1.06329,2.07668 0.60729,0.5361 1.48174,1.04507 2.66023,1.58904 a 0.68589916,0.65429557 0 0 0 0.0101,0.005 c 1.23377,0.54924 2.74138,0.80306 4.51612,0.80306 1.83925,0 3.58163,-0.52457 5.1654,-1.54435 a 0.68589916,0.65429557 0 0 0 0.30223,-0.54151 c 0,-1.76404 -0.59929,-3.3816 -1.76379,-4.76057 a 0.68589916,0.65429557 0 0 0 0,-7.4e-4 c -1.23418,-1.45195 -3.00161,-2.20548 -5.09177,-2.20548 z m 17.36648,30.61249 c 3.1499,0.63156 5.74025,0.97407 7.86114,1.06067 0.32292,0.38155 0.76126,0.75928 1.32484,1.16714 0.9713,0.7029 2.06551,1.92013 3.22413,3.64601 1.12718,1.73492 1.61927,2.99631 1.61927,3.31216 l 7.3e-4,7.4e-4 v 7.3e-4 h 7.4e-4 v 7.3e-4 c 0,7.4e-4 -0.0101,0.007 -0.0426,0.0342 -0.071,0.0585 -0.26339,0.16275 -0.57567,0.24841 -0.62463,0.17132 -1.69674,0.27864 -3.14654,0.27864 -2.76378,0 -6.31073,-0.35461 -10.51609,-1.02256 l 0.24573,-4.68172 c 0.0446,-0.46594 -0.26297,-0.88668 -0.61247,-1.13034 -0.0903,-0.0626 -0.23823,-0.0925 -0.33905,-0.14588 0.23682,-0.0539 0.49138,-0.0852 0.65578,-0.27339 0.23661,-0.27087 0.29838,-0.59336 0.29838,-0.89639 z m -4.5792,28.93406 c 0.63002,0 1.21957,0.0562 1.8217,0.0933 -0.84685,0.88035 -1.97463,1.30384 -3.54481,1.30384 -0.55954,0 -0.91683,-0.0982 -1.05801,-0.18138 -0.14118,-0.0832 -0.14716,-0.0839 -0.14716,-0.27864 0,-0.29416 0.0608,-0.40368 0.50466,-0.59935 0.44442,-0.19565 1.2717,-0.33779 2.42362,-0.33779 z" />
  </g>
</svg>
